# xmcd
#
# Track frame offsets: 
#        150
#        15903
#        28852
#        47029
#        62354
#        74283
#        84500
#        103945
#
# Disc length: 1581 seconds
#
# Revision: 0
# Processed by: cddbd v1.5.1PL0 Copyright (c) Steve Scherf et al.
# Submitted via: ExactAudioCopy v0.95a4
#
DISCID=5e062b08
DTITLE=Собаки Дождя and боря Вэйтс - Живой концерт на Луне
DYEAR=2003
DGENRE=Blues
TTITLE0=В поисках любви
TTITLE1=Люблюз 99,9%
TTITLE2=Mi Amor
TTITLE3=Молод и пьян
TTITLE4=Нас нет
TTITLE5=Маша
TTITLE6=Завтра рано вставать
TTITLE7=Спи
EXTD=
EXTT0=
EXTT1=
EXTT2=
EXTT3=
EXTT4=
EXTT5=
EXTT6=
EXTT7=
PLAYORDER=
